HIERARCHY
ROOT Hips
{
 OFFSET 0.000000 0.000000 0.000000
 CHANNELS 6 Xposition Yposition Zposition Yrotation Xrotation Zrotation
 JOINT Chest
 {
  OFFSET 0.000000 9.585900 0.002600
  CHANNELS 3 Yrotation Xrotation Zrotation
  JOINT Chest2
  {
   OFFSET 0.000000 9.601200 -0.005300
   CHANNELS 3 Yrotation Xrotation Zrotation
   JOINT Chest3
   {
    OFFSET 0.000000 9.561800 0.000000
    CHANNELS 3 Yrotation Xrotation Zrotation
    JOINT Chest4
    {
     OFFSET 0.000000 9.552100 0.000000
     CHANNELS 3 Yrotation Xrotation Zrotation
     JOINT Neck
     {
      OFFSET 0.000000 14.453000 0.000000
      CHANNELS 3 Yrotation Xrotation Zrotation
      JOINT Head
      {
       OFFSET 0.000000 8.936500 -0.011300
       CHANNELS 3 Yrotation Xrotation Zrotation
       End Site
       {
        OFFSET 0.000000 17.073600 -0.006000
       }
      }
     }
     JOINT RightCollar
     {
      OFFSET -2.921100 9.558500 0.000000
      CHANNELS 3 Yrotation Xrotation Zrotation
      JOINT RightShoulder
      {
       OFFSET -13.519700 0.000000 0.000000
       CHANNELS 3 Yrotation Xrotation Zrotation
       JOINT RightElbow
       {
        OFFSET 0.000000 -29.696600 0.000000
        CHANNELS 3 Yrotation Xrotation Zrotation
        JOINT RightWrist
        {
         OFFSET 0.000000 -24.004700 0.000000
         CHANNELS 3 Yrotation Xrotation Zrotation
         End Site
         {
          OFFSET 0.000000 -17.728500 0.000000
         }
        }
       }
      }
     }
     JOINT LeftCollar
     {
      OFFSET 2.921100 9.558500 0.000000
      CHANNELS 3 Yrotation Xrotation Zrotation
      JOINT LeftShoulder
      {
       OFFSET 13.519700 0.000000 0.000000
       CHANNELS 3 Yrotation Xrotation Zrotation
       JOINT LeftElbow
       {
        OFFSET 0.000000 -29.696600 0.000000
        CHANNELS 3 Yrotation Xrotation Zrotation
        JOINT LeftWrist
        {
         OFFSET 0.000000 -24.004700 0.000000
         CHANNELS 3 Yrotation Xrotation Zrotation
         End Site
         {
          OFFSET 0.000000 -17.728500 0.000000
         }
        }
       }
      }
     }
    }
   }
  }
 }
 JOINT RightHip
 {
  OFFSET -7.771700 -0.012900 -0.001300
  CHANNELS 3 Yrotation Xrotation Zrotation
  JOINT RightKnee
  {
   OFFSET 0.000000 -40.869800 0.001200
   CHANNELS 3 Yrotation Xrotation Zrotation
   JOINT RightAnkle
   {
    OFFSET 0.000000 -39.717900 0.002100
    CHANNELS 3 Yrotation Xrotation Zrotation
    JOINT RightToe
    {
     OFFSET 0.000000 -4.965400 11.033500
     CHANNELS 3 Yrotation Xrotation Zrotation
     End Site
     {
      OFFSET 0.000000 -1.423100 5.872300
     }
    }
   }
  }
 }
 JOINT LeftHip
 {
  OFFSET 7.771700 -0.012900 -0.001300
  CHANNELS 3 Yrotation Xrotation Zrotation
  JOINT LeftKnee
  {
   OFFSET 0.000000 -40.869800 0.001200
   CHANNELS 3 Yrotation Xrotation Zrotation
   JOINT LeftAnkle
   {
    OFFSET 0.000000 -39.717900 0.002100
    CHANNELS 3 Yrotation Xrotation Zrotation
    JOINT LeftToe
    {
     OFFSET 0.000000 -4.965400 11.033500
     CHANNELS 3 Yrotation Xrotation Zrotation
     End Site
     {
      OFFSET 0.000000 -1.423100 5.872300
     }
    }
   }
  }
 }
}
MOTION
Frames: 6
Frame Time: 0.008333
0.000000 85.388000 0.000000 0.000000 -5.767877 0.000000 0.000000 11.653817 0.000000 0.000000 -5.885947 0.000000 0.000000 -0.000000 0.000000 0.000000 -0.000000 0.000000 0.000000 12.528835 0.000000 0.000000 0.711642 0.000000 0.000000 -0.000000 0.000000 0.000000 0.000000 -90.000000 0.000000 -2.309062 0.000000 0.000000 2.309062 0.000000 0.000000 -0.000000 0.000000 0.000000 -0.000000 90.000000 0.000000 -2.309062 0.000000 0.000000 2.309062 0.000000 0.000000 8.520406 0.000000 0.000000 1.905762 0.000000 -0.000000 -4.658285 0.000000 0.000000 -0.000000 0.000000 0.000000 8.520406 0.000000 0.000000 1.905762 0.000000 -0.000000 -4.658285 0.000000 0.000000 -0.000000 0.000000
-6.945286 58.456181 42.893328 -179.748543 -31.342527 -4.005206 1.239014 22.788346 3.599109 0.056273 3.281755 0.275691 0.098910 5.308629 0.448099 0.595259 19.246729 1.743298 -6.475857 9.754954 -2.452194 -11.423444 -17.607702 -1.758349 3.748002 -4.046719 -1.996407 16.364368 -21.745001 -25.665082 147.269646 -74.604555 -108.279563 23.760088 -18.845262 -51.097068 -8.134290 -5.478050 -1.803287 -4.560191 -14.714087 8.540624 -137.932442 -64.003909 108.104856 -10.196038 -12.171108 30.613836 4.941584 -39.649162 -2.149136 -2.686316 70.370662 -3.230139 2.642835 5.947441 6.344224 -0.049028 0.151521 -0.016937 -12.570726 -46.642854 3.714234 28.621576 65.862032 27.128659 -7.726210 33.530228 2.476951 0.237474 -19.156133 -6.323527
-6.944601 58.455820 42.893167 -179.739278 -31.352334 -4.038804 1.216284 22.792835 3.551973 0.069724 3.286298 0.308848 0.079702 5.310857 0.407146 0.604667 19.251028 1.749580 -6.499631 9.802083 -2.433878 -11.445083 -17.517517 -1.682970 3.708981 -3.989640 -2.027593 16.204026 -21.684624 -25.368560 146.740604 -74.454863 -108.071822 23.731969 -19.070153 -50.921384 -8.143936 -5.458676 -1.850352 -4.517419 -14.726092 8.431185 -138.002764 -63.957430 108.215339 -10.229019 -12.021114 30.456942 4.928242 -39.635124 -2.116983 -2.703352 70.361211 -3.238516 2.640322 5.949933 6.348550 -0.049281 0.147699 -0.018008 -12.611628 -46.630663 3.755868 28.638782 65.867410 27.145766 -7.724915 33.526230 2.476223 0.234605 -19.156267 -6.324707
-6.941871 58.456381 42.892188 -179.736412 -31.370486 -4.085215 1.209253 22.804732 3.521410 0.061297 3.287971 0.287772 0.087499 5.316400 0.418709 0.578104 19.260843 1.702865 -6.484079 9.849685 -2.372537 -11.471996 -17.426964 -1.601428 3.708270 -3.953154 -2.017129 15.990040 -21.588465 -25.013829 146.256657 -74.297820 -107.915315 23.713651 -19.309574 -50.777098 -8.127888 -5.437750 -1.860522 -4.475795 -14.747116 8.324125 -138.090198 -63.911283 108.342944 -10.205185 -11.941424 30.397021 4.896486 -39.611470 -2.051940 -2.733171 70.344984 -3.269826 2.643513 5.954684 6.353616 -0.051696 0.139425 -0.020242 -12.661045 -46.607304 3.817602 28.685343 65.875552 27.196415 -7.742991 33.499363 2.460816 0.233665 -19.141760 -6.320501
-6.939332 58.456299 42.892996 -179.731624 -31.377567 -4.134333 1.204493 22.805092 3.493899 0.058000 3.291027 0.283502 0.088725 5.320648 0.413024 0.553364 19.271413 1.653354 -6.471461 9.898711 -2.307224 -11.502712 -17.332639 -1.515590 3.713897 -3.931952 -2.000270 15.716735 -21.453224 -24.609622 145.892645 -74.145959 -107.869245 23.708826 -19.543321 -50.688919 -8.120390 -5.418910 -1.871101 -4.440286 -14.778590 8.217654 -138.192099 -63.876668 108.485127 -10.243408 -11.898147 30.354364 4.860920 -39.598648 -1.987966 -2.756104 70.327000 -3.291087 2.643883 5.958471 6.351384 -0.052794 0.141391 -0.016080 -12.712916 -46.603763 3.881276 28.745876 65.887711 27.260844 -7.745678 33.495758 2.463075 0.231153 -19.150483 -6.324021
-6.938410 58.457187 42.893050 -179.728441 -31.391200 -4.175023 1.210213 22.814853 3.498265 0.061896 3.293401 0.299840 0.071548 5.323705 0.351731 0.546220 19.280538 1.628758 -6.478834 9.950519 -2.260335 -11.535250 -17.232600 -1.425837 3.733864 -3.932260 -1.956525 15.378040 -21.263630 -24.207345 145.697075 -74.008572 -107.970122 23.717480 -19.746610 -50.668800 -8.129285 -5.404586 -1.904936 -4.420877 -14.821561 8.112952 -138.310655 -63.854716 108.644946 -10.272415 -11.909464 30.372737 4.833085 -39.577776 -1.935054 -2.773296 70.309739 -3.306171 2.641395 5.958008 6.349216 -0.051956 0.146170 -0.012490 -12.742195 -46.587913 3.925965 28.762892 65.900243 27.291198 -7.753087 33.472507 2.448281 0.231595 -19.139222 -6.317487
